<svg xmlns="http://www.w3.org/2000/svg" viewBox="0 0 1200 630" role="img" aria-labelledby="title desc">
  <title id="title">BCH Forge social card</title>
  <desc id="desc">Open-source tools for Bitcoin Cash self-custody and infrastructure.</desc>
  <defs>
    <radialGradient id="glow" cx="0" cy="0" r="1" gradientUnits="userSpaceOnUse" gradientTransform="translate(170 80) rotate(38) scale(740 520)">
      <stop stop-color="#0ac18e" stop-opacity=".32"/>
      <stop offset=".58" stop-color="#0ac18e" stop-opacity=".08"/>
      <stop offset="1" stop-color="#0ac18e" stop-opacity="0"/>
    </radialGradient>
    <linearGradient id="bg" x1="0" y1="0" x2="1200" y2="630" gradientUnits="userSpaceOnUse"><stop stop-color="#081114"/><stop offset=".55" stop-color="#0d1a1f"/><stop offset="1" stop-color="#05090b"/></linearGradient>
  </defs>
  <rect width="1200" height="630" fill="url(#bg)"/>
  <rect width="1200" height="630" fill="url(#glow)"/>
  <path d="M884 0h316v630H735L884 0Z" fill="#0ac18e" opacity=".08"/>
  <path d="M0 520h1200" stroke="#ffffff" stroke-opacity=".08" stroke-width="2"/>
  <g transform="translate(88 88) scale(1.1)">
    <rect width="128" height="128" rx="30" fill="#081114"/>
    <path d="M64 14 104 37v54l-40 23-40-23V37l40-23Z" fill="none" stroke="#829592" stroke-width="4" stroke-linejoin="round"/>
    <g fill="none" stroke="#edf4f2" stroke-width="3" stroke-linecap="square" stroke-linejoin="miter">
      <path d="M45 38v58M45 38h45M45 63h35"/>
    </g>
    <g fill="#081114" stroke="#edf4f2" stroke-width="3">
      <circle cx="45" cy="38" r="6" fill="#18d8a3"/>
      <circle cx="90" cy="38" r="6"/>
      <circle cx="45" cy="63" r="6"/>
      <circle cx="80" cy="63" r="6" fill="#18d8a3"/>
      <circle cx="45" cy="96" r="6"/>
    </g>
  </g>
  <text x="88" y="310" fill="#18d8a3" font-family="Inter, ui-sans-serif, system-ui, -apple-system, BlinkMacSystemFont, Segoe UI, sans-serif" font-size="23" font-weight="800" letter-spacing="4">TOOLS FOR THE BITCOIN CASH ECOSYSTEM</text>
  <text x="84" y="402" fill="#f3f8f7" font-family="Inter, ui-sans-serif, system-ui, -apple-system, BlinkMacSystemFont, Segoe UI, sans-serif" font-size="86" font-weight="850" letter-spacing="-5">BCH Forge</text>
  <text x="90" y="470" fill="#a6b6b5" font-family="Inter, ui-sans-serif, system-ui, -apple-system, BlinkMacSystemFont, Segoe UI, sans-serif" font-size="34" font-weight="600">Open-source tools for Bitcoin Cash self-custody</text>
  <text x="90" y="515" fill="#a6b6b5" font-family="Inter, ui-sans-serif, system-ui, -apple-system, BlinkMacSystemFont, Segoe UI, sans-serif" font-size="34" font-weight="600">and infrastructure.</text>
  <text x="90" y="580" fill="#f3f8f7" fill-opacity=".78" font-family="Inter, ui-sans-serif, system-ui, -apple-system, BlinkMacSystemFont, Segoe UI, sans-serif" font-size="22" font-weight="700">bchforge.org</text>
</svg>